<mxfile host="Electron" agent="Mozilla/5.0 (X11; Linux x86_64) AppleWebKit/537.36 (KHTML, like Gecko) draw.io/24.7.17 Chrome/128.0.6613.36 Electron/32.0.1 Safari/537.36" version="24.7.17">
  <diagram name="Page-1" id="Sy20OAdEgAqGfPOiga1-">
    <mxGraphModel dx="1434" dy="907" grid="1" gridSize="10" guides="1" tooltips="1" connect="1" arrows="1" fold="1" page="1" pageScale="1" pageWidth="1600" pageHeight="900" math="0" shadow="0">
      <root>
        <mxCell id="0" />
        <mxCell id="1" parent="0" />
        <mxCell id="b-crDoFuaYlc3iiSwqN1-9" value="" style="edgeStyle=none;orthogonalLoop=1;jettySize=auto;html=1;rounded=0;endArrow=none;endFill=0;fontSize=24;" parent="1" source="b-crDoFuaYlc3iiSwqN1-18" target="b-crDoFuaYlc3iiSwqN1-17" edge="1">
          <mxGeometry width="80" relative="1" as="geometry">
            <mxPoint x="460" y="480" as="sourcePoint" />
            <mxPoint x="440" y="440" as="targetPoint" />
            <Array as="points" />
          </mxGeometry>
        </mxCell>
        <mxCell id="b-crDoFuaYlc3iiSwqN1-10" value="" style="edgeStyle=none;orthogonalLoop=1;jettySize=auto;html=1;rounded=0;endArrow=none;endFill=0;fontSize=24;" parent="1" source="b-crDoFuaYlc3iiSwqN1-18" target="b-crDoFuaYlc3iiSwqN1-19" edge="1">
          <mxGeometry width="80" relative="1" as="geometry">
            <mxPoint x="460" y="480" as="sourcePoint" />
            <mxPoint x="420" y="440" as="targetPoint" />
            <Array as="points" />
          </mxGeometry>
        </mxCell>
        <mxCell id="b-crDoFuaYlc3iiSwqN1-11" value="" style="edgeStyle=none;orthogonalLoop=1;jettySize=auto;html=1;rounded=0;endArrow=none;endFill=0;fontSize=24;" parent="1" source="b-crDoFuaYlc3iiSwqN1-18" target="b-crDoFuaYlc3iiSwqN1-20" edge="1">
          <mxGeometry width="80" relative="1" as="geometry">
            <mxPoint x="460" y="480" as="sourcePoint" />
            <mxPoint x="400" y="440" as="targetPoint" />
            <Array as="points" />
          </mxGeometry>
        </mxCell>
        <mxCell id="b-crDoFuaYlc3iiSwqN1-12" value="" style="edgeStyle=none;orthogonalLoop=1;jettySize=auto;html=1;rounded=0;endArrow=none;endFill=0;fontSize=24;" parent="1" source="b-crDoFuaYlc3iiSwqN1-18" target="b-crDoFuaYlc3iiSwqN1-21" edge="1">
          <mxGeometry width="80" relative="1" as="geometry">
            <mxPoint x="460" y="480" as="sourcePoint" />
            <mxPoint x="380" y="440" as="targetPoint" />
            <Array as="points" />
          </mxGeometry>
        </mxCell>
        <mxCell id="b-crDoFuaYlc3iiSwqN1-13" value="" style="edgeStyle=none;orthogonalLoop=1;jettySize=auto;html=1;rounded=0;endArrow=none;endFill=0;fontSize=24;" parent="1" source="b-crDoFuaYlc3iiSwqN1-18" target="b-crDoFuaYlc3iiSwqN1-22" edge="1">
          <mxGeometry width="80" relative="1" as="geometry">
            <mxPoint x="460" y="480" as="sourcePoint" />
            <mxPoint x="360" y="440" as="targetPoint" />
            <Array as="points" />
          </mxGeometry>
        </mxCell>
        <mxCell id="b-crDoFuaYlc3iiSwqN1-14" value="" style="edgeStyle=none;orthogonalLoop=1;jettySize=auto;html=1;rounded=0;endArrow=none;endFill=0;fontSize=24;" parent="1" source="b-crDoFuaYlc3iiSwqN1-18" target="b-crDoFuaYlc3iiSwqN1-23" edge="1">
          <mxGeometry width="80" relative="1" as="geometry">
            <mxPoint x="460" y="480" as="sourcePoint" />
            <mxPoint x="340" y="440" as="targetPoint" />
            <Array as="points" />
          </mxGeometry>
        </mxCell>
        <mxCell id="b-crDoFuaYlc3iiSwqN1-15" value="" style="edgeStyle=none;orthogonalLoop=1;jettySize=auto;html=1;rounded=0;endArrow=none;endFill=0;fontSize=24;" parent="1" source="b-crDoFuaYlc3iiSwqN1-18" target="b-crDoFuaYlc3iiSwqN1-24" edge="1">
          <mxGeometry width="80" relative="1" as="geometry">
            <mxPoint x="460" y="480" as="sourcePoint" />
            <mxPoint x="320" y="440" as="targetPoint" />
            <Array as="points" />
          </mxGeometry>
        </mxCell>
        <mxCell id="b-crDoFuaYlc3iiSwqN1-17" value="&lt;font style=&quot;font-size: 24px;&quot; face=&quot;Courier New&quot;&gt;G&lt;/font&gt;" style="text;strokeColor=none;align=center;fillColor=none;html=1;verticalAlign=middle;whiteSpace=wrap;rounded=0;fontSize=24;" parent="1" vertex="1">
          <mxGeometry x="440" y="380" width="20" height="20" as="geometry" />
        </mxCell>
        <mxCell id="b-crDoFuaYlc3iiSwqN1-18" value="&lt;font style=&quot;font-size: 24px;&quot; face=&quot;Courier New&quot;&gt;H&lt;/font&gt;" style="text;strokeColor=none;align=center;fillColor=none;html=1;verticalAlign=middle;whiteSpace=wrap;rounded=0;fontSize=24;" parent="1" vertex="1">
          <mxGeometry x="460" y="560" width="20" height="20" as="geometry" />
        </mxCell>
        <mxCell id="b-crDoFuaYlc3iiSwqN1-19" value="&lt;font style=&quot;font-size: 24px;&quot; face=&quot;Courier New&quot;&gt;F&lt;/font&gt;" style="text;strokeColor=none;align=center;fillColor=none;html=1;verticalAlign=middle;whiteSpace=wrap;rounded=0;fontSize=24;" parent="1" vertex="1">
          <mxGeometry x="420" y="380" width="20" height="20" as="geometry" />
        </mxCell>
        <mxCell id="b-crDoFuaYlc3iiSwqN1-20" value="&lt;font style=&quot;font-size: 24px;&quot; face=&quot;Courier New&quot;&gt;E&lt;/font&gt;" style="text;strokeColor=none;align=center;fillColor=none;html=1;verticalAlign=middle;whiteSpace=wrap;rounded=0;fontSize=24;" parent="1" vertex="1">
          <mxGeometry x="400" y="380" width="20" height="20" as="geometry" />
        </mxCell>
        <mxCell id="b-crDoFuaYlc3iiSwqN1-21" value="&lt;font style=&quot;font-size: 24px;&quot; face=&quot;Courier New&quot;&gt;D&lt;/font&gt;" style="text;strokeColor=none;align=center;fillColor=none;html=1;verticalAlign=middle;whiteSpace=wrap;rounded=0;fontSize=24;" parent="1" vertex="1">
          <mxGeometry x="380" y="380" width="20" height="20" as="geometry" />
        </mxCell>
        <mxCell id="b-crDoFuaYlc3iiSwqN1-22" value="&lt;font style=&quot;font-size: 24px;&quot; face=&quot;Courier New&quot;&gt;C&lt;/font&gt;" style="text;strokeColor=none;align=center;fillColor=none;html=1;verticalAlign=middle;whiteSpace=wrap;rounded=0;fontSize=24;" parent="1" vertex="1">
          <mxGeometry x="360" y="380" width="20" height="20" as="geometry" />
        </mxCell>
        <mxCell id="b-crDoFuaYlc3iiSwqN1-23" value="&lt;font style=&quot;font-size: 24px;&quot; face=&quot;Courier New&quot;&gt;B&lt;/font&gt;" style="text;strokeColor=none;align=center;fillColor=none;html=1;verticalAlign=middle;whiteSpace=wrap;rounded=0;fontSize=24;" parent="1" vertex="1">
          <mxGeometry x="340" y="380" width="20" height="20" as="geometry" />
        </mxCell>
        <mxCell id="b-crDoFuaYlc3iiSwqN1-24" value="&lt;font style=&quot;font-size: 24px;&quot; face=&quot;Courier New&quot;&gt;A&lt;/font&gt;" style="text;strokeColor=none;align=center;fillColor=none;html=1;verticalAlign=middle;whiteSpace=wrap;rounded=0;fontSize=24;" parent="1" vertex="1">
          <mxGeometry x="320" y="380" width="20" height="20" as="geometry" />
        </mxCell>
        <mxCell id="b-crDoFuaYlc3iiSwqN1-27" value="" style="edgeStyle=none;orthogonalLoop=1;jettySize=auto;html=1;rounded=0;endArrow=none;endFill=0;fontSize=24;" parent="1" source="b-crDoFuaYlc3iiSwqN1-35" edge="1">
          <mxGeometry width="80" relative="1" as="geometry">
            <mxPoint x="440" y="480" as="sourcePoint" />
            <mxPoint x="431" y="400" as="targetPoint" />
            <Array as="points" />
          </mxGeometry>
        </mxCell>
        <mxCell id="b-crDoFuaYlc3iiSwqN1-28" value="" style="edgeStyle=none;orthogonalLoop=1;jettySize=auto;html=1;rounded=0;endArrow=none;endFill=0;fontSize=24;" parent="1" source="b-crDoFuaYlc3iiSwqN1-35" edge="1">
          <mxGeometry width="80" relative="1" as="geometry">
            <mxPoint x="440" y="480" as="sourcePoint" />
            <mxPoint x="412" y="400" as="targetPoint" />
            <Array as="points" />
          </mxGeometry>
        </mxCell>
        <mxCell id="b-crDoFuaYlc3iiSwqN1-29" value="" style="edgeStyle=none;orthogonalLoop=1;jettySize=auto;html=1;rounded=0;endArrow=none;endFill=0;fontSize=24;" parent="1" source="b-crDoFuaYlc3iiSwqN1-35" edge="1">
          <mxGeometry width="80" relative="1" as="geometry">
            <mxPoint x="440" y="480" as="sourcePoint" />
            <mxPoint x="393" y="400" as="targetPoint" />
            <Array as="points" />
          </mxGeometry>
        </mxCell>
        <mxCell id="b-crDoFuaYlc3iiSwqN1-30" value="" style="edgeStyle=none;orthogonalLoop=1;jettySize=auto;html=1;rounded=0;endArrow=none;endFill=0;fontSize=24;" parent="1" source="b-crDoFuaYlc3iiSwqN1-35" edge="1">
          <mxGeometry width="80" relative="1" as="geometry">
            <mxPoint x="440" y="480" as="sourcePoint" />
            <mxPoint x="374" y="400" as="targetPoint" />
            <Array as="points" />
          </mxGeometry>
        </mxCell>
        <mxCell id="b-crDoFuaYlc3iiSwqN1-31" value="" style="edgeStyle=none;orthogonalLoop=1;jettySize=auto;html=1;rounded=0;endArrow=none;endFill=0;fontSize=24;" parent="1" source="b-crDoFuaYlc3iiSwqN1-35" edge="1">
          <mxGeometry width="80" relative="1" as="geometry">
            <mxPoint x="440" y="480" as="sourcePoint" />
            <mxPoint x="356" y="400" as="targetPoint" />
            <Array as="points" />
          </mxGeometry>
        </mxCell>
        <mxCell id="b-crDoFuaYlc3iiSwqN1-32" value="" style="edgeStyle=none;orthogonalLoop=1;jettySize=auto;html=1;rounded=0;endArrow=none;endFill=0;fontSize=24;" parent="1" source="b-crDoFuaYlc3iiSwqN1-35" edge="1">
          <mxGeometry width="80" relative="1" as="geometry">
            <mxPoint x="440" y="480" as="sourcePoint" />
            <mxPoint x="337" y="400" as="targetPoint" />
            <Array as="points" />
          </mxGeometry>
        </mxCell>
        <mxCell id="b-crDoFuaYlc3iiSwqN1-35" value="&lt;font style=&quot;font-size: 24px;&quot; face=&quot;Courier New&quot;&gt;G&lt;/font&gt;" style="text;strokeColor=none;align=center;fillColor=none;html=1;verticalAlign=middle;whiteSpace=wrap;rounded=0;fontSize=24;" parent="1" vertex="1">
          <mxGeometry x="440" y="560" width="20" height="20" as="geometry" />
        </mxCell>
        <mxCell id="b-crDoFuaYlc3iiSwqN1-36" value="" style="edgeStyle=none;orthogonalLoop=1;jettySize=auto;html=1;rounded=0;endArrow=none;endFill=0;fontSize=24;" parent="1" source="b-crDoFuaYlc3iiSwqN1-44" edge="1">
          <mxGeometry width="80" relative="1" as="geometry">
            <mxPoint x="420" y="480" as="sourcePoint" />
            <mxPoint x="411" y="400" as="targetPoint" />
            <Array as="points" />
          </mxGeometry>
        </mxCell>
        <mxCell id="b-crDoFuaYlc3iiSwqN1-37" value="" style="edgeStyle=none;orthogonalLoop=1;jettySize=auto;html=1;rounded=0;endArrow=none;endFill=0;fontSize=24;" parent="1" source="b-crDoFuaYlc3iiSwqN1-44" edge="1">
          <mxGeometry width="80" relative="1" as="geometry">
            <mxPoint x="420" y="480" as="sourcePoint" />
            <mxPoint x="392" y="400" as="targetPoint" />
            <Array as="points" />
          </mxGeometry>
        </mxCell>
        <mxCell id="b-crDoFuaYlc3iiSwqN1-38" value="" style="edgeStyle=none;orthogonalLoop=1;jettySize=auto;html=1;rounded=0;endArrow=none;endFill=0;fontSize=24;" parent="1" source="b-crDoFuaYlc3iiSwqN1-44" edge="1">
          <mxGeometry width="80" relative="1" as="geometry">
            <mxPoint x="420" y="480" as="sourcePoint" />
            <mxPoint x="373" y="400" as="targetPoint" />
            <Array as="points" />
          </mxGeometry>
        </mxCell>
        <mxCell id="b-crDoFuaYlc3iiSwqN1-39" value="" style="edgeStyle=none;orthogonalLoop=1;jettySize=auto;html=1;rounded=0;endArrow=none;endFill=0;fontSize=24;" parent="1" source="b-crDoFuaYlc3iiSwqN1-44" edge="1">
          <mxGeometry width="80" relative="1" as="geometry">
            <mxPoint x="420" y="480" as="sourcePoint" />
            <mxPoint x="354" y="400" as="targetPoint" />
            <Array as="points" />
          </mxGeometry>
        </mxCell>
        <mxCell id="b-crDoFuaYlc3iiSwqN1-40" value="" style="edgeStyle=none;orthogonalLoop=1;jettySize=auto;html=1;rounded=0;endArrow=none;endFill=0;fontSize=24;" parent="1" source="b-crDoFuaYlc3iiSwqN1-44" edge="1">
          <mxGeometry width="80" relative="1" as="geometry">
            <mxPoint x="420" y="480" as="sourcePoint" />
            <mxPoint x="336" y="400" as="targetPoint" />
            <Array as="points" />
          </mxGeometry>
        </mxCell>
        <mxCell id="b-crDoFuaYlc3iiSwqN1-44" value="&lt;font style=&quot;font-size: 24px;&quot; face=&quot;Courier New&quot;&gt;F&lt;/font&gt;" style="text;strokeColor=none;align=center;fillColor=none;html=1;verticalAlign=middle;whiteSpace=wrap;rounded=0;fontSize=24;" parent="1" vertex="1">
          <mxGeometry x="420" y="560" width="20" height="20" as="geometry" />
        </mxCell>
        <mxCell id="b-crDoFuaYlc3iiSwqN1-45" value="" style="edgeStyle=none;orthogonalLoop=1;jettySize=auto;html=1;rounded=0;endArrow=none;endFill=0;fontSize=24;" parent="1" source="b-crDoFuaYlc3iiSwqN1-53" edge="1">
          <mxGeometry width="80" relative="1" as="geometry">
            <mxPoint x="400" y="480" as="sourcePoint" />
            <mxPoint x="391" y="400" as="targetPoint" />
            <Array as="points" />
          </mxGeometry>
        </mxCell>
        <mxCell id="b-crDoFuaYlc3iiSwqN1-46" value="" style="edgeStyle=none;orthogonalLoop=1;jettySize=auto;html=1;rounded=0;endArrow=none;endFill=0;fontSize=24;" parent="1" source="b-crDoFuaYlc3iiSwqN1-53" edge="1">
          <mxGeometry width="80" relative="1" as="geometry">
            <mxPoint x="400" y="480" as="sourcePoint" />
            <mxPoint x="372" y="400" as="targetPoint" />
            <Array as="points" />
          </mxGeometry>
        </mxCell>
        <mxCell id="b-crDoFuaYlc3iiSwqN1-47" value="" style="edgeStyle=none;orthogonalLoop=1;jettySize=auto;html=1;rounded=0;endArrow=none;endFill=0;fontSize=24;" parent="1" source="b-crDoFuaYlc3iiSwqN1-53" edge="1">
          <mxGeometry width="80" relative="1" as="geometry">
            <mxPoint x="400" y="480" as="sourcePoint" />
            <mxPoint x="353" y="400" as="targetPoint" />
            <Array as="points" />
          </mxGeometry>
        </mxCell>
        <mxCell id="b-crDoFuaYlc3iiSwqN1-48" value="" style="edgeStyle=none;orthogonalLoop=1;jettySize=auto;html=1;rounded=0;endArrow=none;endFill=0;fontSize=24;" parent="1" source="b-crDoFuaYlc3iiSwqN1-53" edge="1">
          <mxGeometry width="80" relative="1" as="geometry">
            <mxPoint x="400" y="480" as="sourcePoint" />
            <mxPoint x="334" y="400" as="targetPoint" />
            <Array as="points" />
          </mxGeometry>
        </mxCell>
        <mxCell id="b-crDoFuaYlc3iiSwqN1-53" value="&lt;font style=&quot;font-size: 24px;&quot; face=&quot;Courier New&quot;&gt;E&lt;/font&gt;" style="text;strokeColor=none;align=center;fillColor=none;html=1;verticalAlign=middle;whiteSpace=wrap;rounded=0;fontSize=24;" parent="1" vertex="1">
          <mxGeometry x="400" y="560" width="20" height="20" as="geometry" />
        </mxCell>
        <mxCell id="b-crDoFuaYlc3iiSwqN1-54" value="&lt;font face=&quot;Courier New&quot; style=&quot;font-size: 24px;&quot;&gt;H&lt;/font&gt;" style="text;strokeColor=none;align=center;fillColor=none;html=1;verticalAlign=middle;whiteSpace=wrap;rounded=0;fontSize=24;fontColor=#CCCCCC;" parent="1" vertex="1">
          <mxGeometry x="460" y="380" width="20" height="20" as="geometry" />
        </mxCell>
        <mxCell id="b-crDoFuaYlc3iiSwqN1-56" value="" style="edgeStyle=none;orthogonalLoop=1;jettySize=auto;html=1;rounded=0;endArrow=none;endFill=0;fontSize=24;" parent="1" source="b-crDoFuaYlc3iiSwqN1-64" edge="1">
          <mxGeometry width="80" relative="1" as="geometry">
            <mxPoint x="380" y="480" as="sourcePoint" />
            <mxPoint x="371" y="400" as="targetPoint" />
            <Array as="points" />
          </mxGeometry>
        </mxCell>
        <mxCell id="b-crDoFuaYlc3iiSwqN1-57" value="" style="edgeStyle=none;orthogonalLoop=1;jettySize=auto;html=1;rounded=0;endArrow=none;endFill=0;fontSize=24;" parent="1" source="b-crDoFuaYlc3iiSwqN1-64" edge="1">
          <mxGeometry width="80" relative="1" as="geometry">
            <mxPoint x="380" y="480" as="sourcePoint" />
            <mxPoint x="352" y="400" as="targetPoint" />
            <Array as="points" />
          </mxGeometry>
        </mxCell>
        <mxCell id="b-crDoFuaYlc3iiSwqN1-58" value="" style="edgeStyle=none;orthogonalLoop=1;jettySize=auto;html=1;rounded=0;endArrow=none;endFill=0;fontSize=24;" parent="1" source="b-crDoFuaYlc3iiSwqN1-64" edge="1">
          <mxGeometry width="80" relative="1" as="geometry">
            <mxPoint x="380" y="480" as="sourcePoint" />
            <mxPoint x="333" y="400" as="targetPoint" />
            <Array as="points" />
          </mxGeometry>
        </mxCell>
        <mxCell id="b-crDoFuaYlc3iiSwqN1-64" value="&lt;font style=&quot;font-size: 24px;&quot; face=&quot;Courier New&quot;&gt;D&lt;/font&gt;" style="text;strokeColor=none;align=center;fillColor=none;html=1;verticalAlign=middle;whiteSpace=wrap;rounded=0;fontSize=24;" parent="1" vertex="1">
          <mxGeometry x="380" y="560" width="20" height="20" as="geometry" />
        </mxCell>
        <mxCell id="b-crDoFuaYlc3iiSwqN1-65" value="" style="edgeStyle=none;orthogonalLoop=1;jettySize=auto;html=1;rounded=0;endArrow=none;endFill=0;fontSize=24;" parent="1" source="b-crDoFuaYlc3iiSwqN1-73" edge="1">
          <mxGeometry width="80" relative="1" as="geometry">
            <mxPoint x="360" y="480" as="sourcePoint" />
            <mxPoint x="351" y="400" as="targetPoint" />
            <Array as="points" />
          </mxGeometry>
        </mxCell>
        <mxCell id="b-crDoFuaYlc3iiSwqN1-66" value="" style="edgeStyle=none;orthogonalLoop=1;jettySize=auto;html=1;rounded=0;endArrow=none;endFill=0;fontSize=24;" parent="1" source="b-crDoFuaYlc3iiSwqN1-73" edge="1">
          <mxGeometry width="80" relative="1" as="geometry">
            <mxPoint x="360" y="480" as="sourcePoint" />
            <mxPoint x="332" y="400" as="targetPoint" />
            <Array as="points" />
          </mxGeometry>
        </mxCell>
        <mxCell id="b-crDoFuaYlc3iiSwqN1-73" value="&lt;font style=&quot;font-size: 24px;&quot; face=&quot;Courier New&quot;&gt;C&lt;/font&gt;" style="text;strokeColor=none;align=center;fillColor=none;html=1;verticalAlign=middle;whiteSpace=wrap;rounded=0;fontSize=24;" parent="1" vertex="1">
          <mxGeometry x="360" y="560" width="20" height="20" as="geometry" />
        </mxCell>
        <mxCell id="b-crDoFuaYlc3iiSwqN1-74" value="" style="edgeStyle=none;orthogonalLoop=1;jettySize=auto;html=1;rounded=0;endArrow=none;endFill=0;fontSize=24;" parent="1" source="b-crDoFuaYlc3iiSwqN1-82" edge="1">
          <mxGeometry width="80" relative="1" as="geometry">
            <mxPoint x="340" y="480" as="sourcePoint" />
            <mxPoint x="331" y="400" as="targetPoint" />
            <Array as="points" />
          </mxGeometry>
        </mxCell>
        <mxCell id="b-crDoFuaYlc3iiSwqN1-82" value="&lt;font style=&quot;font-size: 24px;&quot; face=&quot;Courier New&quot;&gt;B&lt;/font&gt;" style="text;strokeColor=none;align=center;fillColor=none;html=1;verticalAlign=middle;whiteSpace=wrap;rounded=0;fontSize=24;" parent="1" vertex="1">
          <mxGeometry x="340" y="560" width="20" height="20" as="geometry" />
        </mxCell>
        <mxCell id="b-crDoFuaYlc3iiSwqN1-91" value="&lt;font style=&quot;font-size: 24px;&quot; face=&quot;Courier New&quot;&gt;A&lt;/font&gt;" style="text;strokeColor=none;align=center;fillColor=none;html=1;verticalAlign=middle;whiteSpace=wrap;rounded=0;fontSize=24;" parent="1" vertex="1">
          <mxGeometry x="320" y="560" width="20" height="20" as="geometry" />
        </mxCell>
        <mxCell id="b-crDoFuaYlc3iiSwqN1-100" value="&lt;font style=&quot;font-size: 24px;&quot; face=&quot;Courier New&quot;&gt;G&lt;/font&gt;" style="text;strokeColor=none;align=center;fillColor=none;html=1;verticalAlign=middle;whiteSpace=wrap;rounded=0;fontSize=24;fontColor=#CCCCCC;" parent="1" vertex="1">
          <mxGeometry x="240" y="100" width="20" height="20" as="geometry" />
        </mxCell>
        <mxCell id="b-crDoFuaYlc3iiSwqN1-101" value="&lt;font style=&quot;font-size: 24px;&quot; face=&quot;Courier New&quot;&gt;H&lt;/font&gt;" style="text;strokeColor=none;align=center;fillColor=none;html=1;verticalAlign=middle;whiteSpace=wrap;rounded=0;fontSize=24;fontColor=#CCCCCC;" parent="1" vertex="1">
          <mxGeometry x="260" y="280" width="20" height="20" as="geometry" />
        </mxCell>
        <mxCell id="b-crDoFuaYlc3iiSwqN1-102" value="&lt;font style=&quot;font-size: 24px;&quot; face=&quot;Courier New&quot;&gt;F&lt;/font&gt;" style="text;strokeColor=none;align=center;fillColor=none;html=1;verticalAlign=middle;whiteSpace=wrap;rounded=0;fontSize=24;fontColor=#CCCCCC;" parent="1" vertex="1">
          <mxGeometry x="220" y="100" width="20" height="20" as="geometry" />
        </mxCell>
        <mxCell id="b-crDoFuaYlc3iiSwqN1-103" value="&lt;font style=&quot;font-size: 24px;&quot; face=&quot;Courier New&quot;&gt;E&lt;/font&gt;" style="text;strokeColor=none;align=center;fillColor=none;html=1;verticalAlign=middle;whiteSpace=wrap;rounded=0;fontSize=24;fontColor=#CCCCCC;" parent="1" vertex="1">
          <mxGeometry x="200" y="100" width="20" height="20" as="geometry" />
        </mxCell>
        <mxCell id="b-crDoFuaYlc3iiSwqN1-104" value="&lt;font style=&quot;font-size: 24px;&quot; face=&quot;Courier New&quot;&gt;D&lt;/font&gt;" style="text;strokeColor=none;align=center;fillColor=none;html=1;verticalAlign=middle;whiteSpace=wrap;rounded=0;fontSize=24;fontColor=#CCCCCC;" parent="1" vertex="1">
          <mxGeometry x="180" y="100" width="20" height="20" as="geometry" />
        </mxCell>
        <mxCell id="b-crDoFuaYlc3iiSwqN1-105" value="&lt;font style=&quot;font-size: 24px;&quot; face=&quot;Courier New&quot;&gt;C&lt;/font&gt;" style="text;strokeColor=none;align=center;fillColor=none;html=1;verticalAlign=middle;whiteSpace=wrap;rounded=0;fontSize=24;fontColor=#CCCCCC;" parent="1" vertex="1">
          <mxGeometry x="160" y="100" width="20" height="20" as="geometry" />
        </mxCell>
        <mxCell id="b-crDoFuaYlc3iiSwqN1-106" value="&lt;font style=&quot;font-size: 24px;&quot; face=&quot;Courier New&quot;&gt;B&lt;/font&gt;" style="text;strokeColor=none;align=center;fillColor=none;html=1;verticalAlign=middle;whiteSpace=wrap;rounded=0;fontSize=24;fontColor=#CCCCCC;" parent="1" vertex="1">
          <mxGeometry x="140" y="100" width="20" height="20" as="geometry" />
        </mxCell>
        <mxCell id="b-crDoFuaYlc3iiSwqN1-107" value="&lt;font style=&quot;font-size: 24px;&quot; face=&quot;Courier New&quot;&gt;A&lt;/font&gt;" style="text;strokeColor=none;align=center;fillColor=none;html=1;verticalAlign=middle;whiteSpace=wrap;rounded=0;fontSize=24;fontColor=#CCCCCC;" parent="1" vertex="1">
          <mxGeometry x="120" y="100" width="20" height="20" as="geometry" />
        </mxCell>
        <mxCell id="b-crDoFuaYlc3iiSwqN1-114" value="&lt;font face=&quot;Courier New&quot; style=&quot;font-size: 24px;&quot;&gt;G&lt;/font&gt;" style="text;strokeColor=none;align=center;fillColor=none;html=1;verticalAlign=middle;whiteSpace=wrap;rounded=0;fontSize=24;fontColor=#CCCCCC;" parent="1" vertex="1">
          <mxGeometry x="240" y="280" width="20" height="20" as="geometry" />
        </mxCell>
        <mxCell id="b-crDoFuaYlc3iiSwqN1-120" value="&lt;font face=&quot;Courier New&quot; style=&quot;font-size: 24px;&quot;&gt;F&lt;/font&gt;" style="text;strokeColor=none;align=center;fillColor=none;html=1;verticalAlign=middle;whiteSpace=wrap;rounded=0;fontSize=24;fontColor=#CCCCCC;" parent="1" vertex="1">
          <mxGeometry x="220" y="280" width="20" height="20" as="geometry" />
        </mxCell>
        <mxCell id="b-crDoFuaYlc3iiSwqN1-125" value="&lt;font face=&quot;Courier New&quot; style=&quot;font-size: 24px;&quot;&gt;E&lt;/font&gt;" style="text;strokeColor=none;align=center;fillColor=none;html=1;verticalAlign=middle;whiteSpace=wrap;rounded=0;fontSize=24;fontColor=#CCCCCC;" parent="1" vertex="1">
          <mxGeometry x="200" y="280" width="20" height="20" as="geometry" />
        </mxCell>
        <mxCell id="b-crDoFuaYlc3iiSwqN1-126" value="&lt;font face=&quot;Courier New&quot; style=&quot;font-size: 24px;&quot;&gt;H&lt;/font&gt;" style="text;strokeColor=none;align=center;fillColor=none;html=1;verticalAlign=middle;whiteSpace=wrap;rounded=0;fontSize=24;fontColor=#CCCCCC;" parent="1" vertex="1">
          <mxGeometry x="260" y="100" width="20" height="20" as="geometry" />
        </mxCell>
        <mxCell id="b-crDoFuaYlc3iiSwqN1-130" value="&lt;font face=&quot;Courier New&quot; style=&quot;font-size: 24px;&quot;&gt;D&lt;/font&gt;" style="text;strokeColor=none;align=center;fillColor=none;html=1;verticalAlign=middle;whiteSpace=wrap;rounded=0;fontSize=24;fontColor=#CCCCCC;" parent="1" vertex="1">
          <mxGeometry x="180" y="280" width="20" height="20" as="geometry" />
        </mxCell>
        <mxCell id="b-crDoFuaYlc3iiSwqN1-133" value="&lt;font face=&quot;Courier New&quot; style=&quot;font-size: 24px;&quot;&gt;C&lt;/font&gt;" style="text;strokeColor=none;align=center;fillColor=none;html=1;verticalAlign=middle;whiteSpace=wrap;rounded=0;fontSize=24;fontColor=#CCCCCC;" parent="1" vertex="1">
          <mxGeometry x="160" y="280" width="20" height="20" as="geometry" />
        </mxCell>
        <mxCell id="b-crDoFuaYlc3iiSwqN1-135" value="&lt;font face=&quot;Courier New&quot; style=&quot;font-size: 24px;&quot;&gt;B&lt;/font&gt;" style="text;strokeColor=none;align=center;fillColor=none;html=1;verticalAlign=middle;whiteSpace=wrap;rounded=0;fontSize=24;fontColor=#CCCCCC;" parent="1" vertex="1">
          <mxGeometry x="140" y="280" width="20" height="20" as="geometry" />
        </mxCell>
        <mxCell id="b-crDoFuaYlc3iiSwqN1-136" value="&lt;font style=&quot;font-size: 24px;&quot; face=&quot;Courier New&quot;&gt;A&lt;/font&gt;" style="text;strokeColor=none;align=center;fillColor=none;html=1;verticalAlign=middle;whiteSpace=wrap;rounded=0;fontSize=24;fontColor=default;" parent="1" vertex="1">
          <mxGeometry x="120" y="280" width="20" height="20" as="geometry" />
        </mxCell>
        <mxCell id="b-crDoFuaYlc3iiSwqN1-137" value="" style="edgeStyle=none;orthogonalLoop=1;jettySize=auto;html=1;rounded=0;endArrow=none;endFill=0;fontSize=24;" parent="1" source="b-crDoFuaYlc3iiSwqN1-145" target="b-crDoFuaYlc3iiSwqN1-144" edge="1">
          <mxGeometry width="80" relative="1" as="geometry">
            <mxPoint x="860" y="200" as="sourcePoint" />
            <mxPoint x="840" y="160" as="targetPoint" />
            <Array as="points" />
          </mxGeometry>
        </mxCell>
        <mxCell id="b-crDoFuaYlc3iiSwqN1-138" value="" style="edgeStyle=none;orthogonalLoop=1;jettySize=auto;html=1;rounded=0;endArrow=none;endFill=0;fontSize=24;" parent="1" source="b-crDoFuaYlc3iiSwqN1-145" target="b-crDoFuaYlc3iiSwqN1-146" edge="1">
          <mxGeometry width="80" relative="1" as="geometry">
            <mxPoint x="860" y="200" as="sourcePoint" />
            <mxPoint x="820" y="160" as="targetPoint" />
            <Array as="points" />
          </mxGeometry>
        </mxCell>
        <mxCell id="b-crDoFuaYlc3iiSwqN1-139" value="" style="edgeStyle=none;orthogonalLoop=1;jettySize=auto;html=1;rounded=0;endArrow=none;endFill=0;fontSize=24;" parent="1" source="b-crDoFuaYlc3iiSwqN1-145" target="b-crDoFuaYlc3iiSwqN1-147" edge="1">
          <mxGeometry width="80" relative="1" as="geometry">
            <mxPoint x="860" y="200" as="sourcePoint" />
            <mxPoint x="800" y="160" as="targetPoint" />
            <Array as="points" />
          </mxGeometry>
        </mxCell>
        <mxCell id="b-crDoFuaYlc3iiSwqN1-140" value="" style="edgeStyle=none;orthogonalLoop=1;jettySize=auto;html=1;rounded=0;endArrow=none;endFill=0;fontSize=24;" parent="1" source="b-crDoFuaYlc3iiSwqN1-145" target="b-crDoFuaYlc3iiSwqN1-148" edge="1">
          <mxGeometry width="80" relative="1" as="geometry">
            <mxPoint x="860" y="200" as="sourcePoint" />
            <mxPoint x="780" y="160" as="targetPoint" />
            <Array as="points" />
          </mxGeometry>
        </mxCell>
        <mxCell id="b-crDoFuaYlc3iiSwqN1-141" value="" style="edgeStyle=none;orthogonalLoop=1;jettySize=auto;html=1;rounded=0;endArrow=none;endFill=0;fontSize=24;" parent="1" source="b-crDoFuaYlc3iiSwqN1-145" target="b-crDoFuaYlc3iiSwqN1-149" edge="1">
          <mxGeometry width="80" relative="1" as="geometry">
            <mxPoint x="860" y="200" as="sourcePoint" />
            <mxPoint x="760" y="160" as="targetPoint" />
            <Array as="points" />
          </mxGeometry>
        </mxCell>
        <mxCell id="b-crDoFuaYlc3iiSwqN1-142" value="" style="edgeStyle=none;orthogonalLoop=1;jettySize=auto;html=1;rounded=0;endArrow=none;endFill=0;fontSize=24;" parent="1" source="b-crDoFuaYlc3iiSwqN1-145" target="b-crDoFuaYlc3iiSwqN1-150" edge="1">
          <mxGeometry width="80" relative="1" as="geometry">
            <mxPoint x="860" y="200" as="sourcePoint" />
            <mxPoint x="740" y="160" as="targetPoint" />
            <Array as="points" />
          </mxGeometry>
        </mxCell>
        <mxCell id="b-crDoFuaYlc3iiSwqN1-143" value="" style="edgeStyle=none;orthogonalLoop=1;jettySize=auto;html=1;rounded=0;endArrow=none;endFill=0;fontSize=24;" parent="1" source="b-crDoFuaYlc3iiSwqN1-145" target="b-crDoFuaYlc3iiSwqN1-151" edge="1">
          <mxGeometry width="80" relative="1" as="geometry">
            <mxPoint x="860" y="200" as="sourcePoint" />
            <mxPoint x="720" y="160" as="targetPoint" />
            <Array as="points" />
          </mxGeometry>
        </mxCell>
        <mxCell id="b-crDoFuaYlc3iiSwqN1-144" value="&lt;font style=&quot;font-size: 24px;&quot; face=&quot;Courier New&quot;&gt;G&lt;/font&gt;" style="text;strokeColor=none;align=center;fillColor=none;html=1;verticalAlign=middle;whiteSpace=wrap;rounded=0;fontSize=24;" parent="1" vertex="1">
          <mxGeometry x="840" y="100" width="20" height="20" as="geometry" />
        </mxCell>
        <mxCell id="b-crDoFuaYlc3iiSwqN1-145" value="&lt;font style=&quot;font-size: 24px;&quot; face=&quot;Courier New&quot;&gt;H&lt;/font&gt;" style="text;strokeColor=none;align=center;fillColor=none;html=1;verticalAlign=middle;whiteSpace=wrap;rounded=0;fontSize=24;" parent="1" vertex="1">
          <mxGeometry x="860" y="280" width="20" height="20" as="geometry" />
        </mxCell>
        <mxCell id="b-crDoFuaYlc3iiSwqN1-146" value="&lt;font style=&quot;font-size: 24px;&quot; face=&quot;Courier New&quot;&gt;F&lt;/font&gt;" style="text;strokeColor=none;align=center;fillColor=none;html=1;verticalAlign=middle;whiteSpace=wrap;rounded=0;fontSize=24;" parent="1" vertex="1">
          <mxGeometry x="820" y="100" width="20" height="20" as="geometry" />
        </mxCell>
        <mxCell id="b-crDoFuaYlc3iiSwqN1-147" value="&lt;font style=&quot;font-size: 24px;&quot; face=&quot;Courier New&quot;&gt;E&lt;/font&gt;" style="text;strokeColor=none;align=center;fillColor=none;html=1;verticalAlign=middle;whiteSpace=wrap;rounded=0;fontSize=24;" parent="1" vertex="1">
          <mxGeometry x="800" y="100" width="20" height="20" as="geometry" />
        </mxCell>
        <mxCell id="b-crDoFuaYlc3iiSwqN1-148" value="&lt;font style=&quot;font-size: 24px;&quot; face=&quot;Courier New&quot;&gt;D&lt;/font&gt;" style="text;strokeColor=none;align=center;fillColor=none;html=1;verticalAlign=middle;whiteSpace=wrap;rounded=0;fontSize=24;" parent="1" vertex="1">
          <mxGeometry x="780" y="100" width="20" height="20" as="geometry" />
        </mxCell>
        <mxCell id="b-crDoFuaYlc3iiSwqN1-149" value="&lt;font style=&quot;font-size: 24px;&quot; face=&quot;Courier New&quot;&gt;C&lt;/font&gt;" style="text;strokeColor=none;align=center;fillColor=none;html=1;verticalAlign=middle;whiteSpace=wrap;rounded=0;fontSize=24;" parent="1" vertex="1">
          <mxGeometry x="760" y="100" width="20" height="20" as="geometry" />
        </mxCell>
        <mxCell id="b-crDoFuaYlc3iiSwqN1-150" value="&lt;font style=&quot;font-size: 24px;&quot; face=&quot;Courier New&quot;&gt;B&lt;/font&gt;" style="text;strokeColor=none;align=center;fillColor=none;html=1;verticalAlign=middle;whiteSpace=wrap;rounded=0;fontSize=24;" parent="1" vertex="1">
          <mxGeometry x="740" y="100" width="20" height="20" as="geometry" />
        </mxCell>
        <mxCell id="b-crDoFuaYlc3iiSwqN1-151" value="&lt;font style=&quot;font-size: 24px;&quot; face=&quot;Courier New&quot;&gt;A&lt;/font&gt;" style="text;strokeColor=none;align=center;fillColor=none;html=1;verticalAlign=middle;whiteSpace=wrap;rounded=0;fontSize=24;" parent="1" vertex="1">
          <mxGeometry x="720" y="100" width="20" height="20" as="geometry" />
        </mxCell>
        <mxCell id="b-crDoFuaYlc3iiSwqN1-152" value="&lt;font face=&quot;Courier New&quot; style=&quot;font-size: 24px;&quot;&gt;G&lt;/font&gt;" style="text;strokeColor=none;align=center;fillColor=none;html=1;verticalAlign=middle;whiteSpace=wrap;rounded=0;fontSize=24;fontColor=#CCCCCC;" parent="1" vertex="1">
          <mxGeometry x="840" y="280" width="20" height="20" as="geometry" />
        </mxCell>
        <mxCell id="b-crDoFuaYlc3iiSwqN1-153" value="&lt;font face=&quot;Courier New&quot; style=&quot;font-size: 24px;&quot;&gt;F&lt;/font&gt;" style="text;strokeColor=none;align=center;fillColor=none;html=1;verticalAlign=middle;whiteSpace=wrap;rounded=0;fontSize=24;fontColor=#CCCCCC;" parent="1" vertex="1">
          <mxGeometry x="820" y="280" width="20" height="20" as="geometry" />
        </mxCell>
        <mxCell id="b-crDoFuaYlc3iiSwqN1-154" value="&lt;font face=&quot;Courier New&quot; style=&quot;font-size: 24px;&quot;&gt;E&lt;/font&gt;" style="text;strokeColor=none;align=center;fillColor=none;html=1;verticalAlign=middle;whiteSpace=wrap;rounded=0;fontSize=24;fontColor=#CCCCCC;" parent="1" vertex="1">
          <mxGeometry x="800" y="280" width="20" height="20" as="geometry" />
        </mxCell>
        <mxCell id="b-crDoFuaYlc3iiSwqN1-155" value="&lt;font face=&quot;Courier New&quot; style=&quot;font-size: 24px;&quot;&gt;H&lt;/font&gt;" style="text;strokeColor=none;align=center;fillColor=none;html=1;verticalAlign=middle;whiteSpace=wrap;rounded=0;fontSize=24;fontColor=#CCCCCC;" parent="1" vertex="1">
          <mxGeometry x="860" y="100" width="20" height="20" as="geometry" />
        </mxCell>
        <mxCell id="b-crDoFuaYlc3iiSwqN1-156" value="&lt;font face=&quot;Courier New&quot; style=&quot;font-size: 24px;&quot;&gt;D&lt;/font&gt;" style="text;strokeColor=none;align=center;fillColor=none;html=1;verticalAlign=middle;whiteSpace=wrap;rounded=0;fontSize=24;fontColor=#CCCCCC;" parent="1" vertex="1">
          <mxGeometry x="780" y="280" width="20" height="20" as="geometry" />
        </mxCell>
        <mxCell id="b-crDoFuaYlc3iiSwqN1-157" value="&lt;font face=&quot;Courier New&quot; style=&quot;font-size: 24px;&quot;&gt;C&lt;/font&gt;" style="text;strokeColor=none;align=center;fillColor=none;html=1;verticalAlign=middle;whiteSpace=wrap;rounded=0;fontSize=24;fontColor=#CCCCCC;" parent="1" vertex="1">
          <mxGeometry x="760" y="280" width="20" height="20" as="geometry" />
        </mxCell>
        <mxCell id="b-crDoFuaYlc3iiSwqN1-158" value="&lt;font face=&quot;Courier New&quot; style=&quot;font-size: 24px;&quot;&gt;B&lt;/font&gt;" style="text;strokeColor=none;align=center;fillColor=none;html=1;verticalAlign=middle;whiteSpace=wrap;rounded=0;fontSize=24;fontColor=#CCCCCC;" parent="1" vertex="1">
          <mxGeometry x="740" y="280" width="20" height="20" as="geometry" />
        </mxCell>
        <mxCell id="b-crDoFuaYlc3iiSwqN1-159" value="&lt;font face=&quot;Courier New&quot; style=&quot;font-size: 24px;&quot;&gt;A&lt;/font&gt;" style="text;strokeColor=none;align=center;fillColor=none;html=1;verticalAlign=middle;whiteSpace=wrap;rounded=0;fontSize=24;fontColor=#CCCCCC;" parent="1" vertex="1">
          <mxGeometry x="720" y="280" width="20" height="20" as="geometry" />
        </mxCell>
        <mxCell id="b-crDoFuaYlc3iiSwqN1-167" value="&lt;font face=&quot;Courier New&quot; style=&quot;font-size: 24px;&quot;&gt;G&lt;/font&gt;" style="text;strokeColor=none;align=center;fillColor=none;html=1;verticalAlign=middle;whiteSpace=wrap;rounded=0;fontSize=24;fontColor=#CCCCCC;" parent="1" vertex="1">
          <mxGeometry x="440" y="100" width="20" height="20" as="geometry" />
        </mxCell>
        <mxCell id="b-crDoFuaYlc3iiSwqN1-168" value="&lt;font face=&quot;Courier New&quot; style=&quot;font-size: 24px;&quot;&gt;H&lt;/font&gt;" style="text;strokeColor=none;align=center;fillColor=none;html=1;verticalAlign=middle;whiteSpace=wrap;rounded=0;fontSize=24;fontColor=#CCCCCC;" parent="1" vertex="1">
          <mxGeometry x="460" y="280" width="20" height="20" as="geometry" />
        </mxCell>
        <mxCell id="b-crDoFuaYlc3iiSwqN1-169" value="&lt;font face=&quot;Courier New&quot; style=&quot;font-size: 24px;&quot;&gt;F&lt;/font&gt;" style="text;strokeColor=none;align=center;fillColor=none;html=1;verticalAlign=middle;whiteSpace=wrap;rounded=0;fontSize=24;fontColor=#CCCCCC;" parent="1" vertex="1">
          <mxGeometry x="420" y="100" width="20" height="20" as="geometry" />
        </mxCell>
        <mxCell id="b-crDoFuaYlc3iiSwqN1-170" value="&lt;font face=&quot;Courier New&quot; style=&quot;font-size: 24px;&quot;&gt;E&lt;/font&gt;" style="text;strokeColor=none;align=center;fillColor=none;html=1;verticalAlign=middle;whiteSpace=wrap;rounded=0;fontSize=24;fontColor=#CCCCCC;" parent="1" vertex="1">
          <mxGeometry x="400" y="100" width="20" height="20" as="geometry" />
        </mxCell>
        <mxCell id="b-crDoFuaYlc3iiSwqN1-171" value="&lt;font face=&quot;Courier New&quot; style=&quot;font-size: 24px;&quot;&gt;D&lt;/font&gt;" style="text;strokeColor=none;align=center;fillColor=none;html=1;verticalAlign=middle;whiteSpace=wrap;rounded=0;fontSize=24;fontColor=#CCCCCC;" parent="1" vertex="1">
          <mxGeometry x="380" y="100" width="20" height="20" as="geometry" />
        </mxCell>
        <mxCell id="b-crDoFuaYlc3iiSwqN1-172" value="&lt;font face=&quot;Courier New&quot; style=&quot;font-size: 24px;&quot;&gt;C&lt;/font&gt;" style="text;strokeColor=none;align=center;fillColor=none;html=1;verticalAlign=middle;whiteSpace=wrap;rounded=0;fontSize=24;fontColor=#CCCCCC;" parent="1" vertex="1">
          <mxGeometry x="360" y="100" width="20" height="20" as="geometry" />
        </mxCell>
        <mxCell id="b-crDoFuaYlc3iiSwqN1-173" value="&lt;font face=&quot;Courier New&quot; style=&quot;font-size: 24px;&quot;&gt;B&lt;/font&gt;" style="text;strokeColor=none;align=center;fillColor=none;html=1;verticalAlign=middle;whiteSpace=wrap;rounded=0;fontSize=24;fontColor=#CCCCCC;" parent="1" vertex="1">
          <mxGeometry x="340" y="100" width="20" height="20" as="geometry" />
        </mxCell>
        <mxCell id="b-crDoFuaYlc3iiSwqN1-174" value="&lt;font style=&quot;font-size: 24px;&quot; face=&quot;Courier New&quot;&gt;A&lt;/font&gt;" style="text;strokeColor=none;align=center;fillColor=none;html=1;verticalAlign=middle;whiteSpace=wrap;rounded=0;fontSize=24;" parent="1" vertex="1">
          <mxGeometry x="320" y="100" width="20" height="20" as="geometry" />
        </mxCell>
        <mxCell id="b-crDoFuaYlc3iiSwqN1-175" value="&lt;font face=&quot;Courier New&quot; style=&quot;font-size: 24px;&quot;&gt;G&lt;/font&gt;" style="text;strokeColor=none;align=center;fillColor=none;html=1;verticalAlign=middle;whiteSpace=wrap;rounded=0;fontSize=24;fontColor=#CCCCCC;" parent="1" vertex="1">
          <mxGeometry x="440" y="280" width="20" height="20" as="geometry" />
        </mxCell>
        <mxCell id="b-crDoFuaYlc3iiSwqN1-176" value="&lt;font face=&quot;Courier New&quot; style=&quot;font-size: 24px;&quot;&gt;F&lt;/font&gt;" style="text;strokeColor=none;align=center;fillColor=none;html=1;verticalAlign=middle;whiteSpace=wrap;rounded=0;fontSize=24;fontColor=#CCCCCC;" parent="1" vertex="1">
          <mxGeometry x="420" y="280" width="20" height="20" as="geometry" />
        </mxCell>
        <mxCell id="b-crDoFuaYlc3iiSwqN1-177" value="&lt;font face=&quot;Courier New&quot; style=&quot;font-size: 24px;&quot;&gt;E&lt;/font&gt;" style="text;strokeColor=none;align=center;fillColor=none;html=1;verticalAlign=middle;whiteSpace=wrap;rounded=0;fontSize=24;fontColor=#CCCCCC;" parent="1" vertex="1">
          <mxGeometry x="400" y="280" width="20" height="20" as="geometry" />
        </mxCell>
        <mxCell id="b-crDoFuaYlc3iiSwqN1-178" value="&lt;font style=&quot;font-size: 24px;&quot; face=&quot;Courier New&quot;&gt;H&lt;/font&gt;" style="text;strokeColor=none;align=center;fillColor=none;html=1;verticalAlign=middle;whiteSpace=wrap;rounded=0;fontSize=24;fontColor=#CCCCCC;" parent="1" vertex="1">
          <mxGeometry x="460" y="100" width="20" height="20" as="geometry" />
        </mxCell>
        <mxCell id="b-crDoFuaYlc3iiSwqN1-179" value="&lt;font face=&quot;Courier New&quot; style=&quot;font-size: 24px;&quot;&gt;D&lt;/font&gt;" style="text;strokeColor=none;align=center;fillColor=none;html=1;verticalAlign=middle;whiteSpace=wrap;rounded=0;fontSize=24;fontColor=#CCCCCC;" parent="1" vertex="1">
          <mxGeometry x="380" y="280" width="20" height="20" as="geometry" />
        </mxCell>
        <mxCell id="b-crDoFuaYlc3iiSwqN1-180" value="&lt;font face=&quot;Courier New&quot; style=&quot;font-size: 24px;&quot;&gt;C&lt;/font&gt;" style="text;strokeColor=none;align=center;fillColor=none;html=1;verticalAlign=middle;whiteSpace=wrap;rounded=0;fontSize=24;fontColor=#CCCCCC;" parent="1" vertex="1">
          <mxGeometry x="360" y="280" width="20" height="20" as="geometry" />
        </mxCell>
        <mxCell id="b-crDoFuaYlc3iiSwqN1-181" value="&lt;font style=&quot;font-size: 24px;&quot; face=&quot;Courier New&quot;&gt;B&lt;/font&gt;" style="text;strokeColor=none;align=center;fillColor=none;html=1;verticalAlign=middle;whiteSpace=wrap;rounded=0;fontSize=24;fontColor=#000000;" parent="1" vertex="1">
          <mxGeometry x="340" y="280" width="20" height="20" as="geometry" />
        </mxCell>
        <mxCell id="b-crDoFuaYlc3iiSwqN1-182" value="&lt;font face=&quot;Courier New&quot; style=&quot;font-size: 24px;&quot;&gt;A&lt;/font&gt;" style="text;strokeColor=none;align=center;fillColor=none;html=1;verticalAlign=middle;whiteSpace=wrap;rounded=0;fontSize=24;fontColor=#CCCCCC;" parent="1" vertex="1">
          <mxGeometry x="320" y="280" width="20" height="20" as="geometry" />
        </mxCell>
        <mxCell id="b-crDoFuaYlc3iiSwqN1-184" value="" style="edgeStyle=none;orthogonalLoop=1;jettySize=auto;html=1;rounded=0;endArrow=none;endFill=0;fontSize=24;" parent="1" edge="1">
          <mxGeometry width="80" relative="1" as="geometry">
            <mxPoint x="348" y="280" as="sourcePoint" />
            <mxPoint x="330" y="120" as="targetPoint" />
            <Array as="points" />
          </mxGeometry>
        </mxCell>
        <mxCell id="b-crDoFuaYlc3iiSwqN1-208" value="&lt;font face=&quot;Courier New&quot; style=&quot;font-size: 24px;&quot;&gt;G&lt;/font&gt;" style="text;strokeColor=none;align=center;fillColor=none;html=1;verticalAlign=middle;whiteSpace=wrap;rounded=0;fontSize=24;fontColor=#CCCCCC;" parent="1" vertex="1">
          <mxGeometry x="640" y="100" width="20" height="20" as="geometry" />
        </mxCell>
        <mxCell id="b-crDoFuaYlc3iiSwqN1-209" value="&lt;font face=&quot;Courier New&quot; style=&quot;font-size: 24px;&quot;&gt;H&lt;/font&gt;" style="text;strokeColor=none;align=center;fillColor=none;html=1;verticalAlign=middle;whiteSpace=wrap;rounded=0;fontSize=24;fontColor=#CCCCCC;" parent="1" vertex="1">
          <mxGeometry x="660" y="280" width="20" height="20" as="geometry" />
        </mxCell>
        <mxCell id="b-crDoFuaYlc3iiSwqN1-210" value="&lt;font face=&quot;Courier New&quot; style=&quot;font-size: 24px;&quot;&gt;F&lt;/font&gt;" style="text;strokeColor=none;align=center;fillColor=none;html=1;verticalAlign=middle;whiteSpace=wrap;rounded=0;fontSize=24;fontColor=#CCCCCC;" parent="1" vertex="1">
          <mxGeometry x="620" y="100" width="20" height="20" as="geometry" />
        </mxCell>
        <mxCell id="b-crDoFuaYlc3iiSwqN1-211" value="&lt;font face=&quot;Courier New&quot; style=&quot;font-size: 24px;&quot;&gt;E&lt;/font&gt;" style="text;strokeColor=none;align=center;fillColor=none;html=1;verticalAlign=middle;whiteSpace=wrap;rounded=0;fontSize=24;fontColor=#CCCCCC;" parent="1" vertex="1">
          <mxGeometry x="600" y="100" width="20" height="20" as="geometry" />
        </mxCell>
        <mxCell id="b-crDoFuaYlc3iiSwqN1-212" value="&lt;font face=&quot;Courier New&quot; style=&quot;font-size: 24px;&quot;&gt;D&lt;/font&gt;" style="text;strokeColor=none;align=center;fillColor=none;html=1;verticalAlign=middle;whiteSpace=wrap;rounded=0;fontSize=24;fontColor=#CCCCCC;" parent="1" vertex="1">
          <mxGeometry x="580" y="100" width="20" height="20" as="geometry" />
        </mxCell>
        <mxCell id="b-crDoFuaYlc3iiSwqN1-213" value="&lt;font face=&quot;Courier New&quot; style=&quot;font-size: 24px;&quot;&gt;C&lt;/font&gt;" style="text;strokeColor=none;align=center;fillColor=none;html=1;verticalAlign=middle;whiteSpace=wrap;rounded=0;fontSize=24;fontColor=#CCCCCC;" parent="1" vertex="1">
          <mxGeometry x="560" y="100" width="20" height="20" as="geometry" />
        </mxCell>
        <mxCell id="b-crDoFuaYlc3iiSwqN1-214" value="&lt;font style=&quot;font-size: 24px;&quot; face=&quot;Courier New&quot;&gt;B&lt;/font&gt;" style="text;strokeColor=none;align=center;fillColor=none;html=1;verticalAlign=middle;whiteSpace=wrap;rounded=0;fontSize=24;fontColor=#000000;" parent="1" vertex="1">
          <mxGeometry x="540" y="100" width="20" height="20" as="geometry" />
        </mxCell>
        <mxCell id="b-crDoFuaYlc3iiSwqN1-215" value="&lt;font style=&quot;font-size: 24px;&quot; face=&quot;Courier New&quot;&gt;A&lt;/font&gt;" style="text;strokeColor=none;align=center;fillColor=none;html=1;verticalAlign=middle;whiteSpace=wrap;rounded=0;fontSize=24;" parent="1" vertex="1">
          <mxGeometry x="520" y="100" width="20" height="20" as="geometry" />
        </mxCell>
        <mxCell id="b-crDoFuaYlc3iiSwqN1-216" value="&lt;font face=&quot;Courier New&quot; style=&quot;font-size: 24px;&quot;&gt;G&lt;/font&gt;" style="text;strokeColor=none;align=center;fillColor=none;html=1;verticalAlign=middle;whiteSpace=wrap;rounded=0;fontSize=24;fontColor=#CCCCCC;" parent="1" vertex="1">
          <mxGeometry x="640" y="280" width="20" height="20" as="geometry" />
        </mxCell>
        <mxCell id="b-crDoFuaYlc3iiSwqN1-217" value="&lt;font face=&quot;Courier New&quot; style=&quot;font-size: 24px;&quot;&gt;F&lt;/font&gt;" style="text;strokeColor=none;align=center;fillColor=none;html=1;verticalAlign=middle;whiteSpace=wrap;rounded=0;fontSize=24;fontColor=#CCCCCC;" parent="1" vertex="1">
          <mxGeometry x="620" y="280" width="20" height="20" as="geometry" />
        </mxCell>
        <mxCell id="b-crDoFuaYlc3iiSwqN1-218" value="&lt;font face=&quot;Courier New&quot; style=&quot;font-size: 24px;&quot;&gt;E&lt;/font&gt;" style="text;strokeColor=none;align=center;fillColor=none;html=1;verticalAlign=middle;whiteSpace=wrap;rounded=0;fontSize=24;fontColor=#CCCCCC;" parent="1" vertex="1">
          <mxGeometry x="600" y="280" width="20" height="20" as="geometry" />
        </mxCell>
        <mxCell id="b-crDoFuaYlc3iiSwqN1-219" value="&lt;font style=&quot;font-size: 24px;&quot; face=&quot;Courier New&quot;&gt;H&lt;/font&gt;" style="text;strokeColor=none;align=center;fillColor=none;html=1;verticalAlign=middle;whiteSpace=wrap;rounded=0;fontSize=24;fontColor=#CCCCCC;" parent="1" vertex="1">
          <mxGeometry x="660" y="100" width="20" height="20" as="geometry" />
        </mxCell>
        <mxCell id="b-crDoFuaYlc3iiSwqN1-220" value="&lt;font face=&quot;Courier New&quot; style=&quot;font-size: 24px;&quot;&gt;D&lt;/font&gt;" style="text;strokeColor=none;align=center;fillColor=none;html=1;verticalAlign=middle;whiteSpace=wrap;rounded=0;fontSize=24;fontColor=#CCCCCC;" parent="1" vertex="1">
          <mxGeometry x="580" y="280" width="20" height="20" as="geometry" />
        </mxCell>
        <mxCell id="b-crDoFuaYlc3iiSwqN1-221" value="&lt;font style=&quot;font-size: 24px;&quot; face=&quot;Courier New&quot;&gt;C&lt;/font&gt;" style="text;strokeColor=none;align=center;fillColor=none;html=1;verticalAlign=middle;whiteSpace=wrap;rounded=0;fontSize=24;fontColor=#000000;" parent="1" vertex="1">
          <mxGeometry x="560" y="280" width="20" height="20" as="geometry" />
        </mxCell>
        <mxCell id="b-crDoFuaYlc3iiSwqN1-222" value="&lt;font face=&quot;Courier New&quot; style=&quot;font-size: 24px;&quot;&gt;B&lt;/font&gt;" style="text;strokeColor=none;align=center;fillColor=none;html=1;verticalAlign=middle;whiteSpace=wrap;rounded=0;fontSize=24;fontColor=#CCCCCC;" parent="1" vertex="1">
          <mxGeometry x="540" y="280" width="20" height="20" as="geometry" />
        </mxCell>
        <mxCell id="b-crDoFuaYlc3iiSwqN1-223" value="&lt;font face=&quot;Courier New&quot; style=&quot;font-size: 24px;&quot;&gt;A&lt;/font&gt;" style="text;strokeColor=none;align=center;fillColor=none;html=1;verticalAlign=middle;whiteSpace=wrap;rounded=0;fontSize=24;fontColor=#CCCCCC;" parent="1" vertex="1">
          <mxGeometry x="520" y="280" width="20" height="20" as="geometry" />
        </mxCell>
        <mxCell id="b-crDoFuaYlc3iiSwqN1-224" value="" style="edgeStyle=none;orthogonalLoop=1;jettySize=auto;html=1;rounded=0;endArrow=none;endFill=0;fontSize=24;" parent="1" edge="1">
          <mxGeometry width="80" relative="1" as="geometry">
            <mxPoint x="568" y="280" as="sourcePoint" />
            <mxPoint x="550" y="120" as="targetPoint" />
            <Array as="points" />
          </mxGeometry>
        </mxCell>
        <mxCell id="b-crDoFuaYlc3iiSwqN1-225" value="" style="edgeStyle=none;orthogonalLoop=1;jettySize=auto;html=1;rounded=0;endArrow=none;endFill=0;fontSize=24;" parent="1" edge="1">
          <mxGeometry width="80" relative="1" as="geometry">
            <mxPoint x="568" y="280" as="sourcePoint" />
            <mxPoint x="532" y="120" as="targetPoint" />
            <Array as="points" />
          </mxGeometry>
        </mxCell>
        <mxCell id="b-crDoFuaYlc3iiSwqN1-226" value="" style="edgeStyle=none;orthogonalLoop=1;jettySize=auto;html=1;rounded=0;endArrow=none;endFill=0;fontSize=24;" parent="1" source="b-crDoFuaYlc3iiSwqN1-234" edge="1">
          <mxGeometry width="80" relative="1" as="geometry">
            <mxPoint x="660" y="480" as="sourcePoint" />
            <mxPoint x="651.1111111111109" y="400" as="targetPoint" />
            <Array as="points" />
          </mxGeometry>
        </mxCell>
        <mxCell id="b-crDoFuaYlc3iiSwqN1-227" value="" style="edgeStyle=none;orthogonalLoop=1;jettySize=auto;html=1;rounded=0;endArrow=none;endFill=0;fontSize=24;" parent="1" source="b-crDoFuaYlc3iiSwqN1-234" edge="1">
          <mxGeometry width="80" relative="1" as="geometry">
            <mxPoint x="660" y="480" as="sourcePoint" />
            <mxPoint x="632.2222222222222" y="400" as="targetPoint" />
            <Array as="points" />
          </mxGeometry>
        </mxCell>
        <mxCell id="b-crDoFuaYlc3iiSwqN1-228" value="" style="edgeStyle=none;orthogonalLoop=1;jettySize=auto;html=1;rounded=0;endArrow=none;endFill=0;fontSize=24;" parent="1" source="b-crDoFuaYlc3iiSwqN1-234" edge="1">
          <mxGeometry width="80" relative="1" as="geometry">
            <mxPoint x="660" y="480" as="sourcePoint" />
            <mxPoint x="613.3333333333335" y="400" as="targetPoint" />
            <Array as="points" />
          </mxGeometry>
        </mxCell>
        <mxCell id="b-crDoFuaYlc3iiSwqN1-229" value="" style="edgeStyle=none;orthogonalLoop=1;jettySize=auto;html=1;rounded=0;endArrow=none;endFill=0;fontSize=24;" parent="1" source="b-crDoFuaYlc3iiSwqN1-234" edge="1">
          <mxGeometry width="80" relative="1" as="geometry">
            <mxPoint x="660" y="480" as="sourcePoint" />
            <mxPoint x="594.4444444444446" y="400" as="targetPoint" />
            <Array as="points" />
          </mxGeometry>
        </mxCell>
        <mxCell id="b-crDoFuaYlc3iiSwqN1-230" value="" style="edgeStyle=none;orthogonalLoop=1;jettySize=auto;html=1;rounded=0;endArrow=none;endFill=0;fontSize=24;" parent="1" source="b-crDoFuaYlc3iiSwqN1-234" edge="1">
          <mxGeometry width="80" relative="1" as="geometry">
            <mxPoint x="660" y="480" as="sourcePoint" />
            <mxPoint x="575.5555555555554" y="400" as="targetPoint" />
            <Array as="points" />
          </mxGeometry>
        </mxCell>
        <mxCell id="b-crDoFuaYlc3iiSwqN1-231" value="" style="edgeStyle=none;orthogonalLoop=1;jettySize=auto;html=1;rounded=0;endArrow=none;endFill=0;fontSize=24;" parent="1" source="b-crDoFuaYlc3iiSwqN1-234" edge="1">
          <mxGeometry width="80" relative="1" as="geometry">
            <mxPoint x="660" y="480" as="sourcePoint" />
            <mxPoint x="556.6666666666665" y="400" as="targetPoint" />
            <Array as="points" />
          </mxGeometry>
        </mxCell>
        <mxCell id="b-crDoFuaYlc3iiSwqN1-232" value="" style="edgeStyle=none;orthogonalLoop=1;jettySize=auto;html=1;rounded=0;endArrow=none;endFill=0;fontSize=24;" parent="1" source="b-crDoFuaYlc3iiSwqN1-234" edge="1">
          <mxGeometry width="80" relative="1" as="geometry">
            <mxPoint x="660" y="480" as="sourcePoint" />
            <mxPoint x="537.7777777777778" y="400" as="targetPoint" />
            <Array as="points" />
          </mxGeometry>
        </mxCell>
        <mxCell id="b-crDoFuaYlc3iiSwqN1-234" value="&lt;font style=&quot;font-size: 24px;&quot; face=&quot;Courier New&quot;&gt;H&lt;/font&gt;" style="text;strokeColor=none;align=center;fillColor=none;html=1;verticalAlign=middle;whiteSpace=wrap;rounded=0;fontSize=24;" parent="1" vertex="1">
          <mxGeometry x="660" y="560" width="20" height="20" as="geometry" />
        </mxCell>
        <mxCell id="b-crDoFuaYlc3iiSwqN1-241" value="" style="edgeStyle=none;orthogonalLoop=1;jettySize=auto;html=1;rounded=0;endArrow=none;endFill=0;fontSize=24;" parent="1" source="b-crDoFuaYlc3iiSwqN1-247" edge="1">
          <mxGeometry width="80" relative="1" as="geometry">
            <mxPoint x="640" y="480" as="sourcePoint" />
            <mxPoint x="631" y="400" as="targetPoint" />
            <Array as="points" />
          </mxGeometry>
        </mxCell>
        <mxCell id="b-crDoFuaYlc3iiSwqN1-242" value="" style="edgeStyle=none;orthogonalLoop=1;jettySize=auto;html=1;rounded=0;endArrow=none;endFill=0;fontSize=24;" parent="1" source="b-crDoFuaYlc3iiSwqN1-247" edge="1">
          <mxGeometry width="80" relative="1" as="geometry">
            <mxPoint x="640" y="480" as="sourcePoint" />
            <mxPoint x="612" y="400" as="targetPoint" />
            <Array as="points" />
          </mxGeometry>
        </mxCell>
        <mxCell id="b-crDoFuaYlc3iiSwqN1-243" value="" style="edgeStyle=none;orthogonalLoop=1;jettySize=auto;html=1;rounded=0;endArrow=none;endFill=0;fontSize=24;" parent="1" source="b-crDoFuaYlc3iiSwqN1-247" edge="1">
          <mxGeometry width="80" relative="1" as="geometry">
            <mxPoint x="640" y="480" as="sourcePoint" />
            <mxPoint x="593" y="400" as="targetPoint" />
            <Array as="points" />
          </mxGeometry>
        </mxCell>
        <mxCell id="b-crDoFuaYlc3iiSwqN1-244" value="" style="edgeStyle=none;orthogonalLoop=1;jettySize=auto;html=1;rounded=0;endArrow=none;endFill=0;fontSize=24;" parent="1" source="b-crDoFuaYlc3iiSwqN1-247" edge="1">
          <mxGeometry width="80" relative="1" as="geometry">
            <mxPoint x="640" y="480" as="sourcePoint" />
            <mxPoint x="574" y="400" as="targetPoint" />
            <Array as="points" />
          </mxGeometry>
        </mxCell>
        <mxCell id="b-crDoFuaYlc3iiSwqN1-245" value="" style="edgeStyle=none;orthogonalLoop=1;jettySize=auto;html=1;rounded=0;endArrow=none;endFill=0;fontSize=24;" parent="1" source="b-crDoFuaYlc3iiSwqN1-247" edge="1">
          <mxGeometry width="80" relative="1" as="geometry">
            <mxPoint x="640" y="480" as="sourcePoint" />
            <mxPoint x="556" y="400" as="targetPoint" />
            <Array as="points" />
          </mxGeometry>
        </mxCell>
        <mxCell id="b-crDoFuaYlc3iiSwqN1-246" value="" style="edgeStyle=none;orthogonalLoop=1;jettySize=auto;html=1;rounded=0;endArrow=none;endFill=0;fontSize=24;" parent="1" source="b-crDoFuaYlc3iiSwqN1-247" edge="1">
          <mxGeometry width="80" relative="1" as="geometry">
            <mxPoint x="640" y="480" as="sourcePoint" />
            <mxPoint x="537" y="400" as="targetPoint" />
            <Array as="points" />
          </mxGeometry>
        </mxCell>
        <mxCell id="b-crDoFuaYlc3iiSwqN1-247" value="&lt;font style=&quot;font-size: 24px;&quot; face=&quot;Courier New&quot;&gt;G&lt;/font&gt;" style="text;strokeColor=none;align=center;fillColor=none;html=1;verticalAlign=middle;whiteSpace=wrap;rounded=0;fontSize=24;" parent="1" vertex="1">
          <mxGeometry x="640" y="560" width="20" height="20" as="geometry" />
        </mxCell>
        <mxCell id="b-crDoFuaYlc3iiSwqN1-248" value="" style="edgeStyle=none;orthogonalLoop=1;jettySize=auto;html=1;rounded=0;endArrow=none;endFill=0;fontSize=24;" parent="1" source="b-crDoFuaYlc3iiSwqN1-253" edge="1">
          <mxGeometry width="80" relative="1" as="geometry">
            <mxPoint x="620" y="480" as="sourcePoint" />
            <mxPoint x="611" y="400" as="targetPoint" />
            <Array as="points" />
          </mxGeometry>
        </mxCell>
        <mxCell id="b-crDoFuaYlc3iiSwqN1-249" value="" style="edgeStyle=none;orthogonalLoop=1;jettySize=auto;html=1;rounded=0;endArrow=none;endFill=0;fontSize=24;" parent="1" source="b-crDoFuaYlc3iiSwqN1-253" edge="1">
          <mxGeometry width="80" relative="1" as="geometry">
            <mxPoint x="620" y="480" as="sourcePoint" />
            <mxPoint x="592" y="400" as="targetPoint" />
            <Array as="points" />
          </mxGeometry>
        </mxCell>
        <mxCell id="b-crDoFuaYlc3iiSwqN1-250" value="" style="edgeStyle=none;orthogonalLoop=1;jettySize=auto;html=1;rounded=0;endArrow=none;endFill=0;fontSize=24;" parent="1" source="b-crDoFuaYlc3iiSwqN1-253" edge="1">
          <mxGeometry width="80" relative="1" as="geometry">
            <mxPoint x="620" y="480" as="sourcePoint" />
            <mxPoint x="573" y="400" as="targetPoint" />
            <Array as="points" />
          </mxGeometry>
        </mxCell>
        <mxCell id="b-crDoFuaYlc3iiSwqN1-251" value="" style="edgeStyle=none;orthogonalLoop=1;jettySize=auto;html=1;rounded=0;endArrow=none;endFill=0;fontSize=24;" parent="1" source="b-crDoFuaYlc3iiSwqN1-253" edge="1">
          <mxGeometry width="80" relative="1" as="geometry">
            <mxPoint x="620" y="480" as="sourcePoint" />
            <mxPoint x="554" y="400" as="targetPoint" />
            <Array as="points" />
          </mxGeometry>
        </mxCell>
        <mxCell id="b-crDoFuaYlc3iiSwqN1-252" value="" style="edgeStyle=none;orthogonalLoop=1;jettySize=auto;html=1;rounded=0;endArrow=none;endFill=0;fontSize=24;" parent="1" source="b-crDoFuaYlc3iiSwqN1-253" edge="1">
          <mxGeometry width="80" relative="1" as="geometry">
            <mxPoint x="620" y="480" as="sourcePoint" />
            <mxPoint x="536" y="400" as="targetPoint" />
            <Array as="points" />
          </mxGeometry>
        </mxCell>
        <mxCell id="b-crDoFuaYlc3iiSwqN1-253" value="&lt;font style=&quot;font-size: 24px;&quot; face=&quot;Courier New&quot;&gt;F&lt;/font&gt;" style="text;strokeColor=none;align=center;fillColor=none;html=1;verticalAlign=middle;whiteSpace=wrap;rounded=0;fontSize=24;" parent="1" vertex="1">
          <mxGeometry x="620" y="560" width="20" height="20" as="geometry" />
        </mxCell>
        <mxCell id="b-crDoFuaYlc3iiSwqN1-254" value="" style="edgeStyle=none;orthogonalLoop=1;jettySize=auto;html=1;rounded=0;endArrow=none;endFill=0;fontSize=24;" parent="1" source="b-crDoFuaYlc3iiSwqN1-258" edge="1">
          <mxGeometry width="80" relative="1" as="geometry">
            <mxPoint x="600" y="480" as="sourcePoint" />
            <mxPoint x="591" y="400" as="targetPoint" />
            <Array as="points" />
          </mxGeometry>
        </mxCell>
        <mxCell id="b-crDoFuaYlc3iiSwqN1-255" value="" style="edgeStyle=none;orthogonalLoop=1;jettySize=auto;html=1;rounded=0;endArrow=none;endFill=0;fontSize=24;" parent="1" source="b-crDoFuaYlc3iiSwqN1-258" edge="1">
          <mxGeometry width="80" relative="1" as="geometry">
            <mxPoint x="600" y="480" as="sourcePoint" />
            <mxPoint x="572" y="400" as="targetPoint" />
            <Array as="points" />
          </mxGeometry>
        </mxCell>
        <mxCell id="b-crDoFuaYlc3iiSwqN1-256" value="" style="edgeStyle=none;orthogonalLoop=1;jettySize=auto;html=1;rounded=0;endArrow=none;endFill=0;fontSize=24;" parent="1" source="b-crDoFuaYlc3iiSwqN1-258" edge="1">
          <mxGeometry width="80" relative="1" as="geometry">
            <mxPoint x="600" y="480" as="sourcePoint" />
            <mxPoint x="553" y="400" as="targetPoint" />
            <Array as="points" />
          </mxGeometry>
        </mxCell>
        <mxCell id="b-crDoFuaYlc3iiSwqN1-257" value="" style="edgeStyle=none;orthogonalLoop=1;jettySize=auto;html=1;rounded=0;endArrow=none;endFill=0;fontSize=24;" parent="1" source="b-crDoFuaYlc3iiSwqN1-258" edge="1">
          <mxGeometry width="80" relative="1" as="geometry">
            <mxPoint x="600" y="480" as="sourcePoint" />
            <mxPoint x="534" y="400" as="targetPoint" />
            <Array as="points" />
          </mxGeometry>
        </mxCell>
        <mxCell id="b-crDoFuaYlc3iiSwqN1-258" value="&lt;font style=&quot;font-size: 24px;&quot; face=&quot;Courier New&quot;&gt;E&lt;/font&gt;" style="text;strokeColor=none;align=center;fillColor=none;html=1;verticalAlign=middle;whiteSpace=wrap;rounded=0;fontSize=24;" parent="1" vertex="1">
          <mxGeometry x="600" y="560" width="20" height="20" as="geometry" />
        </mxCell>
        <mxCell id="b-crDoFuaYlc3iiSwqN1-260" value="" style="edgeStyle=none;orthogonalLoop=1;jettySize=auto;html=1;rounded=0;endArrow=none;endFill=0;fontSize=24;" parent="1" source="b-crDoFuaYlc3iiSwqN1-263" edge="1">
          <mxGeometry width="80" relative="1" as="geometry">
            <mxPoint x="580" y="480" as="sourcePoint" />
            <mxPoint x="571" y="400" as="targetPoint" />
            <Array as="points" />
          </mxGeometry>
        </mxCell>
        <mxCell id="b-crDoFuaYlc3iiSwqN1-261" value="" style="edgeStyle=none;orthogonalLoop=1;jettySize=auto;html=1;rounded=0;endArrow=none;endFill=0;fontSize=24;" parent="1" source="b-crDoFuaYlc3iiSwqN1-263" edge="1">
          <mxGeometry width="80" relative="1" as="geometry">
            <mxPoint x="580" y="480" as="sourcePoint" />
            <mxPoint x="552" y="400" as="targetPoint" />
            <Array as="points" />
          </mxGeometry>
        </mxCell>
        <mxCell id="b-crDoFuaYlc3iiSwqN1-262" value="" style="edgeStyle=none;orthogonalLoop=1;jettySize=auto;html=1;rounded=0;endArrow=none;endFill=0;fontSize=24;" parent="1" source="b-crDoFuaYlc3iiSwqN1-263" edge="1">
          <mxGeometry width="80" relative="1" as="geometry">
            <mxPoint x="580" y="480" as="sourcePoint" />
            <mxPoint x="533" y="400" as="targetPoint" />
            <Array as="points" />
          </mxGeometry>
        </mxCell>
        <mxCell id="b-crDoFuaYlc3iiSwqN1-263" value="&lt;font style=&quot;font-size: 24px;&quot; face=&quot;Courier New&quot;&gt;D&lt;/font&gt;" style="text;strokeColor=none;align=center;fillColor=none;html=1;verticalAlign=middle;whiteSpace=wrap;rounded=0;fontSize=24;" parent="1" vertex="1">
          <mxGeometry x="580" y="560" width="20" height="20" as="geometry" />
        </mxCell>
        <mxCell id="b-crDoFuaYlc3iiSwqN1-264" value="" style="edgeStyle=none;orthogonalLoop=1;jettySize=auto;html=1;rounded=0;endArrow=none;endFill=0;fontSize=24;" parent="1" source="b-crDoFuaYlc3iiSwqN1-266" edge="1">
          <mxGeometry width="80" relative="1" as="geometry">
            <mxPoint x="560" y="480" as="sourcePoint" />
            <mxPoint x="551" y="400" as="targetPoint" />
            <Array as="points" />
          </mxGeometry>
        </mxCell>
        <mxCell id="b-crDoFuaYlc3iiSwqN1-265" value="" style="edgeStyle=none;orthogonalLoop=1;jettySize=auto;html=1;rounded=0;endArrow=none;endFill=0;fontSize=24;" parent="1" source="b-crDoFuaYlc3iiSwqN1-266" edge="1">
          <mxGeometry width="80" relative="1" as="geometry">
            <mxPoint x="560" y="480" as="sourcePoint" />
            <mxPoint x="532" y="400" as="targetPoint" />
            <Array as="points" />
          </mxGeometry>
        </mxCell>
        <mxCell id="b-crDoFuaYlc3iiSwqN1-266" value="&lt;font style=&quot;font-size: 24px;&quot; face=&quot;Courier New&quot;&gt;C&lt;/font&gt;" style="text;strokeColor=none;align=center;fillColor=none;html=1;verticalAlign=middle;whiteSpace=wrap;rounded=0;fontSize=24;" parent="1" vertex="1">
          <mxGeometry x="560" y="560" width="20" height="20" as="geometry" />
        </mxCell>
        <mxCell id="b-crDoFuaYlc3iiSwqN1-267" value="" style="edgeStyle=none;orthogonalLoop=1;jettySize=auto;html=1;rounded=0;endArrow=none;endFill=0;fontSize=24;" parent="1" source="b-crDoFuaYlc3iiSwqN1-268" edge="1">
          <mxGeometry width="80" relative="1" as="geometry">
            <mxPoint x="540" y="480" as="sourcePoint" />
            <mxPoint x="531" y="400" as="targetPoint" />
            <Array as="points" />
          </mxGeometry>
        </mxCell>
        <mxCell id="b-crDoFuaYlc3iiSwqN1-268" value="&lt;font style=&quot;font-size: 24px;&quot; face=&quot;Courier New&quot;&gt;B&lt;/font&gt;" style="text;strokeColor=none;align=center;fillColor=none;html=1;verticalAlign=middle;whiteSpace=wrap;rounded=0;fontSize=24;" parent="1" vertex="1">
          <mxGeometry x="540" y="560" width="20" height="20" as="geometry" />
        </mxCell>
        <mxCell id="b-crDoFuaYlc3iiSwqN1-269" value="&lt;font style=&quot;font-size: 24px;&quot; face=&quot;Courier New&quot;&gt;A&lt;/font&gt;" style="text;strokeColor=none;align=center;fillColor=none;html=1;verticalAlign=middle;whiteSpace=wrap;rounded=0;fontSize=24;" parent="1" vertex="1">
          <mxGeometry x="520" y="560" width="20" height="20" as="geometry" />
        </mxCell>
        <mxCell id="b-crDoFuaYlc3iiSwqN1-270" value="&lt;font style=&quot;font-size: 24px;&quot; face=&quot;Courier New&quot;&gt;0&lt;/font&gt;" style="text;strokeColor=none;align=center;fillColor=none;html=1;verticalAlign=middle;whiteSpace=wrap;rounded=0;fontSize=24;" parent="1" vertex="1">
          <mxGeometry x="520" y="380" width="20" height="20" as="geometry" />
        </mxCell>
        <mxCell id="b-crDoFuaYlc3iiSwqN1-271" value="&lt;font style=&quot;font-size: 24px;&quot; face=&quot;Courier New&quot;&gt;G&lt;/font&gt;" style="text;strokeColor=none;align=center;fillColor=none;html=1;verticalAlign=middle;whiteSpace=wrap;rounded=0;fontSize=24;" parent="1" vertex="1">
          <mxGeometry x="660" y="380" width="20" height="20" as="geometry" />
        </mxCell>
        <mxCell id="b-crDoFuaYlc3iiSwqN1-272" value="&lt;font style=&quot;font-size: 24px;&quot; face=&quot;Courier New&quot;&gt;F&lt;/font&gt;" style="text;strokeColor=none;align=center;fillColor=none;html=1;verticalAlign=middle;whiteSpace=wrap;rounded=0;fontSize=24;" parent="1" vertex="1">
          <mxGeometry x="640" y="380" width="20" height="20" as="geometry" />
        </mxCell>
        <mxCell id="b-crDoFuaYlc3iiSwqN1-273" value="&lt;font style=&quot;font-size: 24px;&quot; face=&quot;Courier New&quot;&gt;E&lt;/font&gt;" style="text;strokeColor=none;align=center;fillColor=none;html=1;verticalAlign=middle;whiteSpace=wrap;rounded=0;fontSize=24;" parent="1" vertex="1">
          <mxGeometry x="620" y="380" width="20" height="20" as="geometry" />
        </mxCell>
        <mxCell id="b-crDoFuaYlc3iiSwqN1-274" value="&lt;font style=&quot;font-size: 24px;&quot; face=&quot;Courier New&quot;&gt;D&lt;/font&gt;" style="text;strokeColor=none;align=center;fillColor=none;html=1;verticalAlign=middle;whiteSpace=wrap;rounded=0;fontSize=24;" parent="1" vertex="1">
          <mxGeometry x="600" y="380" width="20" height="20" as="geometry" />
        </mxCell>
        <mxCell id="b-crDoFuaYlc3iiSwqN1-275" value="&lt;font style=&quot;font-size: 24px;&quot; face=&quot;Courier New&quot;&gt;C&lt;/font&gt;" style="text;strokeColor=none;align=center;fillColor=none;html=1;verticalAlign=middle;whiteSpace=wrap;rounded=0;fontSize=24;" parent="1" vertex="1">
          <mxGeometry x="580" y="380" width="20" height="20" as="geometry" />
        </mxCell>
        <mxCell id="b-crDoFuaYlc3iiSwqN1-276" value="&lt;font style=&quot;font-size: 24px;&quot; face=&quot;Courier New&quot;&gt;B&lt;/font&gt;" style="text;strokeColor=none;align=center;fillColor=none;html=1;verticalAlign=middle;whiteSpace=wrap;rounded=0;fontSize=24;" parent="1" vertex="1">
          <mxGeometry x="560" y="380" width="20" height="20" as="geometry" />
        </mxCell>
        <mxCell id="b-crDoFuaYlc3iiSwqN1-277" value="&lt;font style=&quot;font-size: 24px;&quot; face=&quot;Courier New&quot;&gt;A&lt;/font&gt;" style="text;strokeColor=none;align=center;fillColor=none;html=1;verticalAlign=middle;whiteSpace=wrap;rounded=0;fontSize=24;" parent="1" vertex="1">
          <mxGeometry x="540" y="380" width="20" height="20" as="geometry" />
        </mxCell>
        <mxCell id="b-crDoFuaYlc3iiSwqN1-278" value="" style="edgeStyle=none;orthogonalLoop=1;jettySize=auto;html=1;rounded=0;endArrow=none;endFill=0;fontSize=24;" parent="1" source="b-crDoFuaYlc3iiSwqN1-234" target="b-crDoFuaYlc3iiSwqN1-271" edge="1">
          <mxGeometry width="80" relative="1" as="geometry">
            <mxPoint x="679" y="570" as="sourcePoint" />
            <mxPoint x="661.1111111111109" y="410" as="targetPoint" />
            <Array as="points" />
          </mxGeometry>
        </mxCell>
        <mxCell id="b-crDoFuaYlc3iiSwqN1-279" value="" style="edgeStyle=none;orthogonalLoop=1;jettySize=auto;html=1;rounded=0;endArrow=none;endFill=0;fontSize=24;" parent="1" edge="1">
          <mxGeometry width="80" relative="1" as="geometry">
            <mxPoint x="649.76" y="560" as="sourcePoint" />
            <mxPoint x="649.76" y="400" as="targetPoint" />
            <Array as="points" />
          </mxGeometry>
        </mxCell>
        <mxCell id="b-crDoFuaYlc3iiSwqN1-280" value="" style="edgeStyle=none;orthogonalLoop=1;jettySize=auto;html=1;rounded=0;endArrow=none;endFill=0;fontSize=24;" parent="1" edge="1">
          <mxGeometry width="80" relative="1" as="geometry">
            <mxPoint x="629.76" y="560" as="sourcePoint" />
            <mxPoint x="629.76" y="400" as="targetPoint" />
            <Array as="points" />
          </mxGeometry>
        </mxCell>
        <mxCell id="b-crDoFuaYlc3iiSwqN1-281" value="" style="edgeStyle=none;orthogonalLoop=1;jettySize=auto;html=1;rounded=0;endArrow=none;endFill=0;fontSize=24;" parent="1" edge="1">
          <mxGeometry width="80" relative="1" as="geometry">
            <mxPoint x="609.76" y="560" as="sourcePoint" />
            <mxPoint x="609.76" y="400" as="targetPoint" />
            <Array as="points" />
          </mxGeometry>
        </mxCell>
        <mxCell id="b-crDoFuaYlc3iiSwqN1-282" value="" style="edgeStyle=none;orthogonalLoop=1;jettySize=auto;html=1;rounded=0;endArrow=none;endFill=0;fontSize=24;" parent="1" edge="1">
          <mxGeometry width="80" relative="1" as="geometry">
            <mxPoint x="589.76" y="560" as="sourcePoint" />
            <mxPoint x="589.76" y="400" as="targetPoint" />
            <Array as="points" />
          </mxGeometry>
        </mxCell>
        <mxCell id="b-crDoFuaYlc3iiSwqN1-283" value="" style="edgeStyle=none;orthogonalLoop=1;jettySize=auto;html=1;rounded=0;endArrow=none;endFill=0;fontSize=24;" parent="1" edge="1">
          <mxGeometry width="80" relative="1" as="geometry">
            <mxPoint x="569.76" y="560" as="sourcePoint" />
            <mxPoint x="569.76" y="400" as="targetPoint" />
            <Array as="points" />
          </mxGeometry>
        </mxCell>
        <mxCell id="b-crDoFuaYlc3iiSwqN1-284" value="" style="edgeStyle=none;orthogonalLoop=1;jettySize=auto;html=1;rounded=0;endArrow=none;endFill=0;fontSize=24;" parent="1" edge="1">
          <mxGeometry width="80" relative="1" as="geometry">
            <mxPoint x="549.76" y="560" as="sourcePoint" />
            <mxPoint x="549.76" y="400" as="targetPoint" />
            <Array as="points" />
          </mxGeometry>
        </mxCell>
        <mxCell id="b-crDoFuaYlc3iiSwqN1-285" value="" style="edgeStyle=none;orthogonalLoop=1;jettySize=auto;html=1;rounded=0;endArrow=none;endFill=0;fontSize=24;" parent="1" edge="1">
          <mxGeometry width="80" relative="1" as="geometry">
            <mxPoint x="529.76" y="560" as="sourcePoint" />
            <mxPoint x="529.76" y="400" as="targetPoint" />
            <Array as="points" />
          </mxGeometry>
        </mxCell>
      </root>
    </mxGraphModel>
  </diagram>
</mxfile>
